<mxfile host="65bd71144e">
    <diagram id="_bp9Ak-zu9JKlRdSxv8a" name="Page-1">
        <mxGraphModel dx="930" dy="790" grid="1" gridSize="10" guides="1" tooltips="1" connect="1" arrows="1" fold="1" page="1" pageScale="1" pageWidth="850" pageHeight="1100" math="0" shadow="0">
            <root>
                <mxCell id="0"/>
                <mxCell id="1" parent="0"/>
                <mxCell id="vO4T0kHTFYSb5YAGxf2V-1" value="" style="rounded=0;whiteSpace=wrap;html=1;rotation=90;fillColor=#dae8fc;strokeColor=#6c8ebf;" parent="1" vertex="1">
                    <mxGeometry x="270" y="100" width="100" height="60" as="geometry"/>
                </mxCell>
                <mxCell id="vO4T0kHTFYSb5YAGxf2V-4" style="edgeStyle=orthogonalEdgeStyle;rounded=0;orthogonalLoop=1;jettySize=auto;html=1;exitX=1;exitY=0.5;exitDx=0;exitDy=0;" parent="1" edge="1">
                    <mxGeometry relative="1" as="geometry">
                        <mxPoint x="335" y="225" as="sourcePoint"/>
                        <mxPoint x="335" y="225" as="targetPoint"/>
                    </mxGeometry>
                </mxCell>
                <mxCell id="vO4T0kHTFYSb5YAGxf2V-5" value="" style="rounded=0;whiteSpace=wrap;html=1;rotation=90;fillColor=#d5e8d4;strokeColor=#82b366;" parent="1" vertex="1">
                    <mxGeometry x="270" y="220" width="100" height="60" as="geometry"/>
                </mxCell>
                <mxCell id="vO4T0kHTFYSb5YAGxf2V-6" value="" style="rounded=0;whiteSpace=wrap;html=1;rotation=90;fillColor=#d5e8d4;strokeColor=#82b366;" parent="1" vertex="1">
                    <mxGeometry x="150" y="220" width="100" height="60" as="geometry"/>
                </mxCell>
                <mxCell id="vO4T0kHTFYSb5YAGxf2V-8" value="" style="rounded=0;whiteSpace=wrap;html=1;rotation=90;fillColor=#f8cecc;strokeColor=#b85450;" parent="1" vertex="1">
                    <mxGeometry x="270" y="340" width="100" height="60" as="geometry"/>
                </mxCell>
                <mxCell id="vO4T0kHTFYSb5YAGxf2V-9" value="" style="rounded=0;whiteSpace=wrap;html=1;rotation=90;fillColor=#d5e8d4;strokeColor=#82b366;" parent="1" vertex="1">
                    <mxGeometry x="400" y="220" width="100" height="60" as="geometry"/>
                </mxCell>
                <mxCell id="vO4T0kHTFYSb5YAGxf2V-10" value="" style="rounded=0;whiteSpace=wrap;html=1;rotation=90;fillColor=#dae8fc;strokeColor=#6c8ebf;" parent="1" vertex="1">
                    <mxGeometry x="400" y="100" width="100" height="60" as="geometry"/>
                </mxCell>
                <mxCell id="vO4T0kHTFYSb5YAGxf2V-11" value="" style="rounded=0;whiteSpace=wrap;html=1;rotation=90;fillColor=#f8cecc;strokeColor=#b85450;" parent="1" vertex="1">
                    <mxGeometry x="400" y="340" width="100" height="60" as="geometry"/>
                </mxCell>
                <mxCell id="vO4T0kHTFYSb5YAGxf2V-12" value="" style="rounded=0;whiteSpace=wrap;html=1;rotation=90;fillColor=#f8cecc;strokeColor=#b85450;" parent="1" vertex="1">
                    <mxGeometry x="510" y="340" width="100" height="60" as="geometry"/>
                </mxCell>
                <mxCell id="vO4T0kHTFYSb5YAGxf2V-13" value="" style="rounded=0;whiteSpace=wrap;html=1;rotation=90;fillColor=#f8cecc;strokeColor=#b85450;" parent="1" vertex="1">
                    <mxGeometry x="630" y="340" width="100" height="60" as="geometry"/>
                </mxCell>
                <mxCell id="vO4T0kHTFYSb5YAGxf2V-14" value="" style="rounded=0;whiteSpace=wrap;html=1;rotation=90;fillColor=#ffe6cc;strokeColor=#d79b00;" parent="1" vertex="1">
                    <mxGeometry x="510" y="460" width="100" height="60" as="geometry"/>
                </mxCell>
                <mxCell id="vO4T0kHTFYSb5YAGxf2V-15" value="" style="rounded=0;whiteSpace=wrap;html=1;rotation=90;fillColor=#ffe6cc;strokeColor=#d79b00;" parent="1" vertex="1">
                    <mxGeometry x="270" y="460" width="100" height="60" as="geometry"/>
                </mxCell>
                <mxCell id="vO4T0kHTFYSb5YAGxf2V-16" value="" style="rounded=0;whiteSpace=wrap;html=1;rotation=90;fillColor=#d5e8d4;strokeColor=#82b366;" parent="1" vertex="1">
                    <mxGeometry x="510" y="220" width="100" height="60" as="geometry"/>
                </mxCell>
                <mxCell id="vO4T0kHTFYSb5YAGxf2V-17" value="" style="rounded=0;whiteSpace=wrap;html=1;rotation=90;fillColor=#dae8fc;strokeColor=#6c8ebf;" parent="1" vertex="1">
                    <mxGeometry x="510" y="100" width="100" height="60" as="geometry"/>
                </mxCell>
                <mxCell id="vO4T0kHTFYSb5YAGxf2V-18" value="" style="rounded=0;whiteSpace=wrap;html=1;rotation=90;fillColor=#d5e8d4;strokeColor=#82b366;" parent="1" vertex="1">
                    <mxGeometry x="630" y="220" width="100" height="60" as="geometry"/>
                </mxCell>
                <mxCell id="vO4T0kHTFYSb5YAGxf2V-19" value="" style="rounded=0;whiteSpace=wrap;html=1;rotation=90;fillColor=#ffe6cc;strokeColor=#d79b00;" parent="1" vertex="1">
                    <mxGeometry x="630" y="460" width="100" height="60" as="geometry"/>
                </mxCell>
                <mxCell id="vO4T0kHTFYSb5YAGxf2V-20" value="" style="rounded=0;whiteSpace=wrap;html=1;rotation=90;fillColor=#ffe6cc;strokeColor=#d79b00;" parent="1" vertex="1">
                    <mxGeometry x="150" y="460" width="100" height="60" as="geometry"/>
                </mxCell>
                <mxCell id="vO4T0kHTFYSb5YAGxf2V-21" value="" style="rounded=0;whiteSpace=wrap;html=1;rotation=90;fillColor=#dae8fc;strokeColor=#6c8ebf;" parent="1" vertex="1">
                    <mxGeometry x="630" y="100" width="100" height="60" as="geometry"/>
                </mxCell>
                <mxCell id="vO4T0kHTFYSb5YAGxf2V-23" value="" style="rounded=0;whiteSpace=wrap;html=1;rotation=90;fillColor=#ffe6cc;strokeColor=#d79b00;" parent="1" vertex="1">
                    <mxGeometry x="400" y="460" width="100" height="60" as="geometry"/>
                </mxCell>
                <mxCell id="vO4T0kHTFYSb5YAGxf2V-26" value="" style="rounded=0;whiteSpace=wrap;html=1;rotation=90;fillColor=#f8cecc;strokeColor=#b85450;" parent="1" vertex="1">
                    <mxGeometry x="150" y="340" width="100" height="60" as="geometry"/>
                </mxCell>
                <mxCell id="vO4T0kHTFYSb5YAGxf2V-28" value="" style="rounded=1;whiteSpace=wrap;html=1;" parent="1" vertex="1">
                    <mxGeometry x="175" y="610" width="70" height="30" as="geometry"/>
                </mxCell>
                <mxCell id="vO4T0kHTFYSb5YAGxf2V-29" value="" style="rounded=1;whiteSpace=wrap;html=1;" parent="1" vertex="1">
                    <mxGeometry x="402.5" y="610" width="70" height="30" as="geometry"/>
                </mxCell>
                <mxCell id="vO4T0kHTFYSb5YAGxf2V-30" value="" style="rounded=1;whiteSpace=wrap;html=1;" parent="1" vertex="1">
                    <mxGeometry x="605" y="610" width="70" height="30" as="geometry"/>
                </mxCell>
                <mxCell id="vO4T0kHTFYSb5YAGxf2V-31" value="&lt;font color=&quot;#191919&quot;&gt;EASY&lt;/font&gt;" style="text;html=1;strokeColor=#6c8ebf;fillColor=#dae8fc;align=center;verticalAlign=middle;whiteSpace=wrap;rounded=0;" parent="1" vertex="1">
                    <mxGeometry x="180" y="610" width="60" height="30" as="geometry"/>
                </mxCell>
                <mxCell id="4" style="edgeStyle=none;html=1;exitX=1;exitY=0.25;exitDx=0;exitDy=0;fontColor=#0D0D0D;" edge="1" parent="1" source="vO4T0kHTFYSb5YAGxf2V-32">
                    <mxGeometry relative="1" as="geometry">
                        <mxPoint x="415" y="620" as="targetPoint"/>
                    </mxGeometry>
                </mxCell>
                <mxCell id="vO4T0kHTFYSb5YAGxf2V-32" value="&lt;font color=&quot;#1f1f1f&quot;&gt;MEDIUM&lt;/font&gt;" style="text;html=1;strokeColor=#82b366;fillColor=#d5e8d4;align=center;verticalAlign=middle;whiteSpace=wrap;rounded=0;" parent="1" vertex="1">
                    <mxGeometry x="410" y="610" width="55" height="30" as="geometry"/>
                </mxCell>
                <mxCell id="vO4T0kHTFYSb5YAGxf2V-33" value="&lt;font color=&quot;#191919&quot;&gt;HARD&lt;/font&gt;" style="text;html=1;strokeColor=#b85450;fillColor=#f8cecc;align=center;verticalAlign=middle;whiteSpace=wrap;rounded=0;" parent="1" vertex="1">
                    <mxGeometry x="610" y="610" width="60" height="30" as="geometry"/>
                </mxCell>
                <mxCell id="vO4T0kHTFYSb5YAGxf2V-38" value="" style="rounded=1;whiteSpace=wrap;html=1;" parent="1" vertex="1">
                    <mxGeometry x="332.5" y="700" width="100" height="40" as="geometry"/>
                </mxCell>
                <mxCell id="3" style="edgeStyle=none;html=1;exitX=0.75;exitY=1;exitDx=0;exitDy=0;fontColor=#0D0D0D;" edge="1" parent="1" source="vO4T0kHTFYSb5YAGxf2V-40" target="vO4T0kHTFYSb5YAGxf2V-38">
                    <mxGeometry relative="1" as="geometry"/>
                </mxCell>
                <mxCell id="vO4T0kHTFYSb5YAGxf2V-40" value="&lt;font color=&quot;#0d0d0d&quot;&gt;RESET&lt;/font&gt;" style="text;html=1;strokeColor=#d6b656;fillColor=#fff2cc;align=center;verticalAlign=middle;whiteSpace=wrap;rounded=0;" parent="1" vertex="1">
                    <mxGeometry x="352.5" y="705" width="60" height="30" as="geometry"/>
                </mxCell>
                <mxCell id="vO4T0kHTFYSb5YAGxf2V-41" value="Airbender Memory Game" style="text;strokeColor=none;fillColor=none;html=1;fontSize=24;fontStyle=1;verticalAlign=middle;align=center;" parent="1" vertex="1">
                    <mxGeometry x="314" y="20" width="222.5" height="40" as="geometry"/>
                </mxCell>
                <mxCell id="vO4T0kHTFYSb5YAGxf2V-7" value="" style="rounded=0;whiteSpace=wrap;html=1;rotation=90;fillColor=#dae8fc;strokeColor=#6c8ebf;" parent="1" vertex="1">
                    <mxGeometry x="150" y="100" width="100" height="60" as="geometry"/>
                </mxCell>
                <mxCell id="6" value="&lt;span style=&quot;background-color: rgb(13 , 13 , 13)&quot;&gt;Counter&lt;/span&gt;" style="rounded=0;whiteSpace=wrap;html=1;fillColor=#d5e8d4;strokeColor=#82b366;" vertex="1" parent="1">
                    <mxGeometry width="120" height="60" as="geometry"/>
                </mxCell>
            </root>
        </mxGraphModel>
    </diagram>
</mxfile>